# xmcd CD database file
#
# Track frame offsets:
#	150
#	21527
#	40665
#	65972
#
# Disc length: 1183 seconds
#
# Revision: 2
# Processed by: cddbd v1.5.2PL0 Copyright (c) Steve Scherf et al.
# Submitted via: CDex 1.70beta3
#
DISCID=36049d04
DTITLE=中川翔子 - 涙の種、笑顔の花
DYEAR=1900
DGENRE=misc
TTITLE0=涙の種、笑顔の花
TTITLE1=午前六時
TTITLE2=空色デイズ -天元突破EDITION 螺巌篇-
TTITLE3=涙の種、笑顔の花 -Movie Edit-
EXTD=
EXTT0=
EXTT1=
EXTT2=
EXTT3=
PLAYORDER=
